<?xml version="1.0" standalone="no"?><!DOCTYPE svg PUBLIC "-//W3C//DTD SVG 1.1//EN" "http://www.w3.org/Graphics/SVG/1.1/DTD/svg11.dtd"><svg t="1578561542175" class="icon" viewBox="0 0 1024 1024" version="1.1" xmlns="http://www.w3.org/2000/svg" xmlns:xlink="http://www.w3.org/1999/xlink" width="200" height="200"><defs><style type="text/css"></style></defs><path d="M214.656 640a85.44 85.44 0 0 1-85.333333-85.333333V213.333333a85.333333 85.333333 0 0 1 170.666666 0v341.333334a85.44 85.44 0 0 1-85.333333 85.333333zM898.346667 601.749333A106.346667 106.346667 0 0 1 816.597333 640H690.986667c19.285333 78.997333 9.749333 158.464-26.24 208.426667A106.944 106.944 0 0 1 577.322667 896c-49.792 0-49.792-46.122667-49.792-79.786667 0-66.368-14.208-176.213333-168.704-219.52a21.653333 21.653333 0 0 1-16.170667-20.693333V234.538667A106.666667 106.666667 0 0 1 449.194667 128H762.24a106.496 106.496 0 0 1 104.789333 87.466667l54.378667 298.965333a106.325333 106.325333 0 0 1-23.04 87.317333z"></path></svg>