<?xml version="1.0" standalone="no"?><!DOCTYPE svg PUBLIC "-//W3C//DTD SVG 1.1//EN" "http://www.w3.org/Graphics/SVG/1.1/DTD/svg11.dtd"><svg t="1578561736563" class="icon" viewBox="0 0 1024 1024" version="1.1" xmlns="http://www.w3.org/2000/svg" xmlns:xlink="http://www.w3.org/1999/xlink" width="200" height="200"><defs><style type="text/css"></style></defs><path d="M249.6 422.4H108.8c-32 0-32 32-32 32l32 473.6c0 32 32 32 32 32h121.6c25.6 0 25.6-19.2 25.6-19.2V460.8c0-38.4-38.4-38.4-38.4-38.4z m633.6 0h-236.8c89.6-339.2-64-358.4-64-358.4-64 0-51.2 51.2-57.6 64 0 166.4-179.2 294.4-179.2 294.4V896c0 44.8 64 64 89.6 64h358.4c32 0 64-89.6 64-89.6 89.6-300.8 89.6-390.4 89.6-390.4 0-64-64-57.6-64-57.6z"></path></svg>