<?xml version="1.0" standalone="no"?><!DOCTYPE svg PUBLIC "-//W3C//DTD SVG 1.1//EN" "http://www.w3.org/Graphics/SVG/1.1/DTD/svg11.dtd"><svg t="1578551505412" class="icon" viewBox="0 0 1024 1024" version="1.1" xmlns="http://www.w3.org/2000/svg" xmlns:xlink="http://www.w3.org/1999/xlink" width="200" height="200"><defs><style type="text/css"></style></defs><path d="M640 213.333333h85.333333a85.333333 85.333333 0 0 1 85.333334 85.333334v348.586666a128.042667 128.042667 0 1 1-85.333334 0V298.666667h-85.333333v128l-192-170.666667L640 85.333333v128zM213.333333 376.746667a128.042667 128.042667 0 1 1 85.333334 0v270.506666a128.042667 128.042667 0 1 1-85.333334 0V376.746667zM256 298.666667a42.666667 42.666667 0 1 0 0-85.333334 42.666667 42.666667 0 0 0 0 85.333334z m0 512a42.666667 42.666667 0 1 0 0-85.333334 42.666667 42.666667 0 0 0 0 85.333334z m512 0a42.666667 42.666667 0 1 0 0-85.333334 42.666667 42.666667 0 0 0 0 85.333334z"></path></svg>