<?xml version="1.0" standalone="no"?><!DOCTYPE svg PUBLIC "-//W3C//DTD SVG 1.1//EN" "http://www.w3.org/Graphics/SVG/1.1/DTD/svg11.dtd"><svg t="1578551650061" class="icon" viewBox="0 0 1024 1024" version="1.1" xmlns="http://www.w3.org/2000/svg" xmlns:xlink="http://www.w3.org/1999/xlink" width="200" height="200"><defs><style type="text/css"></style></defs><path d="M930.628571 374.971429L649.028571 93.371429c-7.428571-7.428571-17.142857-11.085714-26.857142-11.085715s-19.428571 3.657143-26.857143 11.085715L411.2 277.6c-13.942857-1.6-28-2.285714-42.057143-2.285714-83.657143 0-167.314286 27.542857-236 82.628571a37.977143 37.977143 0 0 0-3.085714 56.457143l207.657143 207.657143-246.171429 245.942857a18.057143 18.057143 0 0 0-5.257143 11.2l-3.885714 42.514286c-1.028571 10.742857 7.542857 19.885714 18.171429 19.885714 0.571429 0 1.142857 0 1.714285-0.114286l42.514286-3.885714c4.228571-0.342857 8.228571-2.285714 11.2-5.257143l246.171429-246.171428 207.657142 207.657142c7.428571 7.428571 17.142857 11.085714 26.857143 11.085715 11.085714 0 22.057143-4.8 29.6-14.171429 64.342857-80.342857 91.085714-180.914286 80.228572-278.171428l184.114285-184.114286c14.742857-14.628571 14.742857-38.628571 0-53.485714zM688.228571 554.628571l-28 28 4.342858 39.314286a297.051429 297.051429 0 0 1-34.742858 175.885714L226.285714 394.057143c14.742857-8.114286 30.057143-14.971429 46.057143-20.457143 31.085714-10.742857 63.657143-16.114286 96.8-16.114286 10.971429 0 22.057143 0.571429 33.028572 1.828572l39.314285 4.342857 28-28L622.285714 182.857143 841.142857 401.714286 688.228571 554.628571z"></path></svg>